IKResults
version=1
nRows=5
nColumns=67
inDegrees=yes

Units are S.I. units (second, meters, Newtons, ...)
Angles are in degrees.

endheader
time	pelvis_tilt	pelvis_list	pelvis_rotation	pelvis_tx	pelvis_ty	pelvis_tz	hip_flexion_r	hip_adduction_r	hip_rotation_r	knee_angle_r	knee_rot_r	knee_adduc_r	ankle_angle_r	ankle_rot_r	ankle_add_r	subtalar_angle_r	mtp_angle_r	mtp_rot_r	mtp_add_r	hip_flexion_l	hip_adduction_l	hip_rotation_l	knee_angle_l	knee_rot_l	knee_adduc_l	ankle_angle_l	ankle_rot_l	ankle_add_l	subtalar_angle_l	mtp_angle_l	mtp_rot_l	mtp_add_l	lumbar_extension	lumbar_bending	lumbar_rotation	neck_flexion	neck_lateral_bending	neck_rotation	arm_flex_r	arm_add_r	arm_rot_r	elbow_flex_r	elbow_rot_r	elbow_add_r	pro_sup_r	wrist_flex_r	wrist_adduc_r	wrist_rot_r	wrist_dev_r	hand_finger_flex_r	hand_finger_adduc_r	hand_finger_rot_r	arm_flex_l	arm_add_l	arm_rot_l	elbow_flex_l	elbow_rot_l	elbow_add_l	pro_sup_l	wrist_flex_l	wrist_adduc_l	wrist_rot_l	wrist_dev_l	hand_finger_flex_l	hand_finger_adduc_l	hand_finger_rot_l
      1.62500000	     15.60687547	     11.54190328	     -3.43134498	     -0.27839960	      0.75786921	      0.89095580	      3.23322822	    -10.78672483	      8.96513685	    -68.80974660	     -5.00000000	      5.00000000	     -5.20835487	     -0.24388252	      3.36875836	      0.63821506	     25.60320871	     -2.00000000	      2.00000000	     -7.47290590	     18.51730048	      8.96735683	    -14.47079295	      4.98233997	      3.06017407	      5.67343047	     -0.44481176	      3.50953337	      3.93018394	     24.53673035	      0.63747828	      0.91760886	    -26.44361810	    -16.38706344	      2.08371812	      0.00000000	      0.00000000	      0.00000000	      0.00000000	      0.00000000	      0.00000000	      0.00000000	      0.00000000	      0.00000000	     -0.00042092	      0.00000000	      0.00000000	      0.00000000	      0.00000000	      0.00000000	      0.00000000	      0.00000000	      0.00000000	      0.00000000	      0.00000000	      0.00000000	      0.00000000	      0.00000000	      0.00000000	      0.00000000	      0.00000000	      0.00000000	      0.00000000	      0.00000000	      0.00000000	      0.00000000
      1.63000000	     15.53325358	     11.27935510	     -3.29979962	     -0.27212073	      0.75854652	      0.89049201	      4.26584667	    -10.32679546	      9.21378937	    -68.67592760	     -5.00000000	      5.00000000	     -4.83584238	     -0.04869843	      3.42676008	      0.72164275	     25.72112124	     -2.00000000	      2.00000000	     -8.39412446	     18.29683830	      9.24386801	    -13.75932465	      5.00000000	      3.20560983	      5.94975216	     -0.63791661	      3.69710280	      3.92933001	     24.47716396	      0.61845020	      0.94839349	    -26.26877497	    -15.93147576	      1.64660905	      0.00000000	      0.00000000	      0.00000000	      0.00000000	      0.00000000	      0.00000000	      0.00000000	      0.00000000	      0.00000000	     -0.00042092	      0.00000000	      0.00000000	      0.00000000	      0.00000000	      0.00000000	      0.00000000	      0.00000000	      0.00000000	      0.00000000	      0.00000000	      0.00000000	      0.00000000	      0.00000000	      0.00000000	      0.00000000	      0.00000000	      0.00000000	      0.00000000	      0.00000000	      0.00000000	      0.00000000
      1.63500000	     15.56064017	     10.99237875	     -2.97690063	     -0.26622334	      0.75914222	      0.88992859	      5.16168664	     -9.93639872	      9.07844408	    -68.52599223	     -5.00000000	      5.00000000	     -3.97861285	      0.31939731	      3.28725363	      0.59996571	     26.45712888	     -2.00000000	      2.00000000	     -9.23194835	     17.93518427	      9.41116374	    -13.38844779	      5.00000000	      3.16339613	      6.47961354	     -1.22090371	      5.00000000	      3.78658112	     24.03807052	      0.50555432	      1.16983335	    -26.43388673	    -15.45799238	      1.31332276	      0.00000000	      0.00000000	      0.00000000	      0.00000000	      0.00000000	      0.00000000	      0.00000000	      0.00000000	      0.00000000	     -0.00042092	      0.00000000	      0.00000000	      0.00000000	      0.00000000	      0.00000000	      0.00000000	      0.00000000	      0.00000000	      0.00000000	      0.00000000	      0.00000000	      0.00000000	      0.00000000	      0.00000000	      0.00000000	      0.00000000	      0.00000000	      0.00000000	      0.00000000	      0.00000000	      0.00000000
      1.64000000	     15.53463126	     10.79906916	     -2.82356959	     -0.26032054	      0.75962885	      0.88949393	      6.16643788	     -9.61203889	      9.20074112	    -68.28660265	     -5.00000000	      5.00000000	     -3.70106907	      0.40312579	      3.32362276	      0.61742213	     26.56342535	     -2.00000000	      2.00000000	    -10.01944950	     17.74841335	      9.59602593	    -12.92886642	      5.00000000	      3.25578778	      6.64327805	     -1.35651238	      5.00000000	      3.84233329	     23.97597827	      0.49064873	      1.20096213	    -26.48554593	    -15.13638487	      1.05528209	      0.00000000	      0.00000000	      0.00000000	      0.00000000	      0.00000000	      0.00000000	      0.00000000	      0.00000000	      0.00000000	     -0.00042092	      0.00000000	      0.00000000	      0.00000000	      0.00000000	      0.00000000	      0.00000000	      0.00000000	      0.00000000	      0.00000000	      0.00000000	      0.00000000	      0.00000000	      0.00000000	      0.00000000	      0.00000000	      0.00000000	      0.00000000	      0.00000000	      0.00000000	      0.00000000	      0.00000000
      1.64500000	     15.53599416	     10.66463851	     -2.63906330	     -0.25469406	      0.75997542	      0.88912076	      7.20210606	     -9.38248010	      9.24045334	    -68.08351186	     -5.00000000	      5.00000000	     -3.46855772	      0.43265577	      3.36813171	      0.62360940	     26.61811494	     -2.00000000	      2.00000000	    -10.74649419	     17.58547646	      9.72397564	    -12.58178849	      5.00000000	      3.30526556	      6.79424900	     -1.46251159	      5.00000000	      3.87068507	     23.94698481	      0.48275832	      1.21569043	    -26.68770779	    -14.89235120	      0.86704523	      0.00000000	      0.00000000	      0.00000000	      0.00000000	      0.00000000	      0.00000000	      0.00000000	      0.00000000	      0.00000000	     -0.00042092	      0.00000000	      0.00000000	      0.00000000	      0.00000000	      0.00000000	      0.00000000	      0.00000000	      0.00000000	      0.00000000	      0.00000000	      0.00000000	      0.00000000	      0.00000000	      0.00000000	      0.00000000	      0.00000000	      0.00000000	      0.00000000	      0.00000000	      0.00000000	      0.00000000
